# xmcd
#
# Track frame offsets:
#	150
#	16845
#	30922
#	45843
#	63015
#	83050
#	94976
#	108588
#	124818
#	140136
#	157538
#	176387
#	194210
#	210022
#	225973
#	242945
#	262046
#	279239
#	297360
#
# Disc length: 4129 seconds
#
# Revision: 1
# Processed by: cddbd v1.5.2PL0 Copyright (c) Steve Scherf et al.
# Submitted via: EZCDAudioConverter 7.1.2.1
#
DISCID=f4101f13
DTITLE=George Strait - Strait Out Of The Box: Part 2 2009-2016
DYEAR=2016
DGENRE=Country
TTITLE0=Living Through The Night
TTITLE1=Out of Sight Out Of Mind
TTITLE2=Arkansas Dave
TTITLE3=Love's Gonna Make It Alright
TTITLE4=Drinkin' Man
TTITLE5=Shame On Me
TTITLE6=Here For A Good Time
TTITLE7=House Across The Bay
TTITLE8=Blue Marlin Blues
TTITLE9=I'll Always Remember You
TTITLE10=Give It All We Got Tonight
TTITLE11=I Just Can't Go On Dying Like This
TTITLE12=That's What Breaking Hearts Do
TTITLE13=The Night Is Young
TTITLE14=I Believe
TTITLE15=Goin' Goin' Gone
TTITLE16=Everything I See
TTITLE17=Kicked Outta Country
TTITLE18=You Gotta Go Through Hell
EXTD=
EXTT0=
EXTT1=
EXTT2=
EXTT3=
EXTT4=
EXTT5=
EXTT6=
EXTT7=
EXTT8=
EXTT9=
EXTT10=
EXTT11=
EXTT12=
EXTT13=
EXTT14=
EXTT15=
EXTT16=
EXTT17=
EXTT18=
PLAYORDER=
